# xmcd
# 
# Track frame offsets:
#     182
#     10877
#     25635
#     36905
#     46275
#     56035
#     68525
#     88165
#     99082
#     110450
#     123070
#     134767
#     145227
#     158332
#     173555
#     183507
#     195432
#     204202
#     215732
#     229142
# 
# Disc length: 3196
# 
# Revision: 6
# Processed by: cddbd v1.5.2PL0 Copyright (c) Steve Scherf et al.
# Submitted via: fre:ac v1.1beta1pre5
# 
DISCID=060c7a14
DTITLE=20 Country Classics Part 2 - Nr.0305
DYEAR=1988
DGENRE=Country
TTITLE0=Roger Miller - King Of The Road
TTITLE1=Kingston Trio - Tom Dooley
TTITLE2=Frankie Laini - Answer Me
TTITLE3=Elvis Presley - I Believe
TTITLE4=Jim Reeves - Snowflake
TTITLE5=Bob Luman - The Great Snowman
TTITLE6=Marty Robbins - El Paso
TTITLE7=Hank Locklin - Send Me The Pillow
TTITLE8=Don Gibson - Oh Lonesome Me
TTITLE9=Johnny Cash - Folsom Prison Blues
TTITLE10=Patsy Cline - Today, Tomorrow And Forever
TTITLE11=Floyd Cramer - San Antonio Rose
TTITLE12=Bobby Helms - My Special Angel
TTITLE13=Jim Reeves - The Blizzard
TTITLE14=Johnny Horton - Honky Tonk Man
TTITLE15=Mark Dining - Teen-Angel
TTITLE16=Ferlin Husky - Wings Of A Dove
TTITLE17=Slim Whitman - Secret Love
TTITLE18=Jerry Lee Lewis - The Ballad Of Billy Joe
TTITLE19=The Cordettes - Mr. Sandman
EXTD=YEAR: 1988
EXTT0=
EXTT1=
EXTT2=
EXTT3=
EXTT4=
EXTT5=
EXTT6=
EXTT7=
EXTT8=
EXTT9=
EXTT10=
EXTT11=
EXTT12=
EXTT13=
EXTT14=
EXTT15=
EXTT16=
EXTT17=
EXTT18=
EXTT19=
PLAYORDER=
